<svg xmlns="http://www.w3.org/2000/svg" viewBox="0 0 200 200" width="200" height="200">
  <!-- Black background -->
  <rect width="200" height="200" fill="#000000"/>
  
  <!-- Left Gothic Window -->
  <g transform="translate(15, 30)">
    <!-- Outer arch -->
    <path d="M 0 120 L 0 50 Q 0 20 15 20 L 15 0 Q 0 0 0 20 L 0 50 L 0 120" 
          fill="none" stroke="#ffffff" stroke-width="2.5" stroke-linecap="round"/>
    <!-- Vertical mullions -->
    <line x1="7.5" y1="20" x2="7.5" y2="120" stroke="#ffffff" stroke-width="1.5"/>
    <!-- Inner arches -->
    <path d="M 0 50 Q 7.5 42 15 50" fill="none" stroke="#ffffff" stroke-width="1.5"/>
    <path d="M 0 85 Q 7.5 77 15 85" fill="none" stroke="#ffffff" stroke-width="1.5"/>
  </g>
  
  <!-- Central Gothic Window (largest and most complex) -->
  <g transform="translate(55, 20)">
    <!-- Outer arch -->
    <path d="M 0 140 L 0 50 Q 0 10 45 10 L 45 0 Q 0 0 0 10 L 0 50 L 0 140" 
          fill="none" stroke="#ffffff" stroke-width="3" stroke-linecap="round"/>
    <!-- Main vertical mullions -->
    <line x1="15" y1="10" x2="15" y2="140" stroke="#ffffff" stroke-width="2"/>
    <line x1="22.5" y1="10" x2="22.5" y2="140" stroke="#ffffff" stroke-width="2"/>
    <line x1="30" y1="10" x2="30" y2="140" stroke="#ffffff" stroke-width="2"/>
    <!-- Branching arches in the main arch -->
    <path d="M 0 50 Q 15 40 30 50" fill="none" stroke="#ffffff" stroke-width="2"/>
    <path d="M 15 50 Q 22.5 45 30 50" fill="none" stroke="#ffffff" stroke-width="1.5"/>
    <path d="M 0 85 Q 15 75 30 85" fill="none" stroke="#ffffff" stroke-width="2"/>
    <path d="M 15 85 Q 22.5 80 30 85" fill="none" stroke="#ffffff" stroke-width="1.5"/>
    <path d="M 0 120 Q 15 110 30 120" fill="none" stroke="#ffffff" stroke-width="2"/>
    <path d="M 15 120 Q 22.5 115 30 120" fill="none" stroke="#ffffff" stroke-width="1.5"/>
    <!-- Top intricate arch pattern -->
    <path d="M 0 50 Q 22.5 30 45 50" fill="none" stroke="#ffffff" stroke-width="2"/>
    <path d="M 15 50 Q 22.5 35 30 50" fill="none" stroke="#ffffff" stroke-width="1.5"/>
  </g>
  
  <!-- Right Gothic Window -->
  <g transform="translate(145, 30)">
    <!-- Outer arch -->
    <path d="M 0 120 L 0 50 Q 0 20 15 20 L 15 0 Q 0 0 0 20 L 0 50 L 0 120" 
          fill="none" stroke="#ffffff" stroke-width="2.5" stroke-linecap="round"/>
    <!-- Vertical mullions -->
    <line x1="7.5" y1="20" x2="7.5" y2="120" stroke="#ffffff" stroke-width="1.5"/>
    <!-- Inner arches -->
    <path d="M 0 50 Q 7.5 42 15 50" fill="none" stroke="#ffffff" stroke-width="1.5"/>
    <path d="M 0 85 Q 7.5 77 15 85" fill="none" stroke="#ffffff" stroke-width="1.5"/>
  </g>
</svg>
